#!OML:ASF H:\ManfredETheater\Project 1\Capture day 1\Session 1\subject.ASF
:FULLY-SPECIFIED
:DEGREES
61
root 0.497217 15.0692 -1.28012 -192.784 -1.03129 178.708
lowerback 18.4144 -1.19402 -1.61311
upperback 2.02336 -2.14611 1.75237
thorax -8.00781 -1.11917 3.3678
lowerneck -16.1363 -0.564391 -2.3037
upperneck 8.93226 -0.289363 0.369941
head 5.31671 -0.190904 0.461511
rclavicle 5.92937e-015 -2.38542e-014
rhumerus -54.8997 -0.756879 -85.2787
rradius 93.0155
rwrist -4.74817
rhand -25.3851 14.3797
rfingers 7.12502
rthumb 1.13961 -15.597
lclavicle 5.92937e-015 -2.38542e-014
lhumerus -49.1657 -8.09402 94.9993
lradius 93.765
lwrist 9.79916
lhand -27.5104 -11.3048
lfingers 7.12502
lthumb -0.913011 18.673
rfemur -45.0817 -9.39945 20.5962
rtibia 54.6342
rfoot -5.84035 -3.453
rtoes -33.1969
lfemur -31.7606 -1.01712 -22.8407
ltibia 79.8066
lfoot -24.93 -1.03453
ltoes -4.36221
62
root 0.524664 15.1101 -1.63608 -192.816 -1.52942 178.613
lowerback 17.979 -1.40241 -1.7075
upperback 1.91986 -2.41427 1.72217
thorax -7.86128 -1.23804 3.4356
lowerneck -16.2147 -0.569258 -2.28327
upperneck 9.06128 -0.299441 0.374113
head 5.3702 -0.196038 0.458549
rclavicle 2.4289e-014 -4.45278e-014
rhumerus -55.4221 -1.01962 -84.9566
rradius 93.371
rwrist -4.59261
rhand -25.3073 14.3444
rfingers 7.12502
rthumb 1.21478 -15.6319
lclavicle 2.4289e-014 -4.45278e-014
lhumerus -48.3391 -8.43856 95.0909
lradius 94.1523
lwrist 10.0686
lhand -27.7915 -11.0833
lfingers 7.12502
lthumb -1.18455 18.8931
rfemur -44.389 -8.81231 20.167
rtibia 50.6867
rfoot -3.85383 -2.77828
rtoes -32.6432
lfemur -30.5818 -1.07022 -22.844
ltibia 80.3343
lfoot -25.0797 -1.803
ltoes -5.58695
63
root 0.554664 15.1485 -1.99118 -192.869 -2.08548 178.55
lowerback 17.5392 -1.60139 -1.78763
upperback 1.81692 -2.66688 1.69672
thorax -7.71179 -1.3506 3.49364
lowerneck -16.3072 -0.602099 -2.28197
upperneck 9.2796 -0.343055 0.379499
head 5.45473 -0.21897 0.455916
rclavicle 2.42517e-014 -6.67916e-014
rhumerus -55.9169 -1.34783 -84.6259
rradius 93.7297
rwrist -4.47643
rhand -25.2556 14.2626
rfingers 7.12502
rthumb 1.26472 -15.7134
lclavicle 2.42517e-014 -6.67916e-014
lhumerus -47.5977 -8.83966 95.1803
lradius 94.4684
lwrist 9.98366
lhand -28.0953 -10.8474
lfingers 7.12502
lthumb -1.47797 19.1272
rfemur -43.5506 -8.25267 19.7237
rtibia 47.1412
rfoot -2.36183 -2.50177
rtoes -32.0729
lfemur -29.4768 -1.15626 -22.7561
ltibia 80.9246
lfoot -24.9709 -2.80934
ltoes -6.87746
64
root 0.586979 15.1836 -2.3459 -192.947 -2.70331 178.531
lowerback 17.1001 -1.79675 -1.84535
upperback 1.70856 -2.9097 1.67964
thorax -7.56866 -1.45936 3.5432
lowerneck -16.3945 -0.657231 -2.3081
upperneck 9.57974 -0.411489 0.389989
head 5.56486 -0.255307 0.456918
rclavicle -6.04057e-014 5.1684e-014
rhumerus -56.3952 -1.71403 -84.2887
rradius 94.0781
rwrist -4.38173
rhand -25.2244 14.1369
rfingers 7.12502
rthumb 1.29486 -15.8389
lclavicle -6.04057e-014 5.1684e-014
lhumerus -46.9346 -9.29591 95.2726
lradius 94.7141
lwrist 9.71445
lhand -28.3778 -10.6137
lfingers 7.12502
lthumb -1.7508 19.3589
rfemur -42.6004 -7.75569 19.3104
rtibia 44.0895
rfoot -1.36814 -2.61811
rtoes -31.472
lfemur -28.4438 -1.29312 -22.5599
ltibia 81.5695
lfoot -24.6197 -4.06746
ltoes -8.15363
65
root 0.621614 15.215 -2.70077 -193.05 -3.36923 178.561
lowerback 16.6602 -1.98592 -1.87706
upperback 1.59597 -3.13912 1.67374
thorax -7.43028 -1.56276 3.58458
lowerneck -16.487 -0.731167 -2.36092
upperneck 9.95964 -0.498466 0.399181
head 5.70177 -0.302231 0.459891
rclavicle 4.92737e-014 -1.59028e-014
rhumerus -56.8545 -2.09645 -83.9474
rradius 94.4069
rwrist -4.28162
rhand -25.1974 13.9791
rfingers 7.12502
rthumb 1.32092 -15.9965
lclavicle 4.92737e-014 -1.59028e-014
lhumerus -46.3298 -9.80432 95.3676
lradius 94.9011
lwrist 9.42983
lhand -28.5949 -10.3934
lfingers 7.12502
lthumb -1.96042 19.5773
rfemur -41.5655 -7.33652 18.9663
rtibia 41.587
rfoot -0.801318 -3.04466
rtoes -30.8244
lfemur -27.4729 -1.4863 -22.2417
ltibia 82.2483
lfoot -24.0506 -5.59395
ltoes -9.26896
66
root 0.65804 15.2419 -3.05637 -193.174 -4.05764 178.627
lowerback 16.2148 -2.16427 -1.88779
upperback 1.47361 -3.34985 1.67425
thorax -7.30056 -1.65764 3.6145
lowerneck -16.5845 -0.819765 -2.41668
upperneck 10.4207 -0.59861 0.376157
head 5.86585 -0.358457 0.45159
rclavicle 1.14301e-015 -2.78299e-014
rhumerus -57.307 -2.46576 -83.6083
rradius 94.7132
rwrist -4.16595
rhand -25.1622 13.7995
rfingers 7.12502
rthumb 1.35489 -16.176
lclavicle 1.14301e-015 -2.78299e-014
lhumerus -45.7805 -10.3518 95.4626
lradius 95.0403
lwrist 9.25274
lhand -28.7113 -10.2016
lfingers 7.12502
lthumb -2.07286 19.7681
rfemur -40.4747 -6.99907 18.7088
rtibia 39.6553
rfoot -0.542683 -3.65446
rtoes -30.1614
lfemur -26.55 -1.73087 -21.8114
ltibia 82.9349
lfoot -23.2946 -7.36402
ltoes -10.1748
67
root 0.695805 15.264 -3.41275 -193.328 -4.75495 178.711
lowerback 15.7804 -2.32599 -1.89015
upperback 1.341 -3.53767 1.67238
thorax -7.1895 -1.74137 3.63125
lowerneck -16.6483 -0.923087 -2.49487
upperneck 10.9201 -0.711916 0.34918
head 6.03748 -0.422151 0.444124
rclavicle 1.799e-014 -3.89618e-014
rhumerus -57.756 -2.80453 -83.2766
rradius 94.9913
rwrist -4.02423
rhand -25.1127 13.6124
rfingers 7.12502
rthumb 1.4027 -16.3627
lclavicle 1.799e-014 -3.89618e-014
lhumerus -45.2814 -10.9282 95.552
lradius 95.1379
lwrist 9.21413
lhand -28.7084 -10.0647
lfingers 7.12502
lthumb -2.07011 19.905
rfemur -39.3553 -6.76416 18.5432
rtibia 38.3011
rfoot -0.30471 -4.25509
rtoes -29.6964
lfemur -25.6543 -2.02941 -21.2939
ltibia 83.6024
lfoot -22.3559 -9.37085
ltoes -10.7899
68
root 0.734893 15.2817 -3.76747 -193.501 -5.4437 178.786
lowerback 15.3793 -2.46354 -1.90598
upperback 1.18832 -3.69654 1.65941
thorax -7.1197 -1.80937 3.63901
lowerneck -16.6671 -1.03678 -2.59107
upperneck 11.4362 -0.834457 0.325162
head 6.20793 -0.490404 0.43942
rclavicle -2.77802e-014 1.74931e-014
rhumerus -58.2016 -3.09273 -82.9629
rradius 95.2363
rwrist -3.85523
rhand -25.055 13.4293
rfingers 7.12502
rthumb 1.45843 -16.5455
lclavicle -2.77802e-014 1.74931e-014
lhumerus -44.8269 -11.5136 95.6268
lradius 95.1881
lwrist 9.26521
lhand -28.5877 -10.0062
lfingers 7.12502
lthumb -1.95347 19.9646
rfemur -38.3255 -6.64124 18.4658
rtibia 37.5286
rfoot 0.14921 -4.73252
rtoes -29.239
lfemur -24.799 -2.3801 -20.7183
ltibia 84.2271
lfoot -21.1978 -11.6028
ltoes -10.9128
69
root 0.774275 15.2945 -4.11921 -193.688 -6.09045 178.817
lowerback 15.0223 -2.56394 -1.95665
upperback 1.01816 -3.81376 1.62282
thorax -7.09489 -1.85485 3.63527
lowerneck -16.6227 -1.15966 -2.69281
upperneck 11.9297 -0.967134 0.297267
head 6.36142 -0.563332 0.433339
rclavicle 3.13086e-015 -1.27222e-014
rhumerus -58.6256 -3.31791 -82.6763
rradius 95.4358
rwrist -3.66821
rhand -24.9894 13.2709
rfingers 7.12502
rthumb 1.52177 -16.7035
lclavicle 3.13086e-015 -1.27222e-014
lhumerus -44.4115 -12.0799 95.6805
lradius 95.1891
lwrist 9.29259
lhand -28.3715 -10.0175
lfingers 7.12502
lthumb -1.74471 19.9551
rfemur -37.4285 -6.55983 18.4257
rtibia 37.3492
rfoot 0.859456 -4.99734
rtoes -28.3798
lfemur -23.9765 -2.75737 -20.1353
ltibia 84.7948
lfoot -19.7988 -13.9898
ltoes -10.6599
70
root 0.813655 15.304 -4.46413 -193.894 -6.6709 178.814
lowerback 14.7531 -2.62137 -2.02836
upperback 0.827694 -3.88018 1.56755
thorax -7.14383 -1.87311 3.61964
lowerneck -16.5141 -1.28724 -2.78822
upperneck 12.3886 -1.10583 0.258737
head 6.4936 -0.638846 0.422331
rclavicle 1.09332e-015 2.14687e-014
rhumerus -59.0152 -3.46894 -82.4233
rradius 95.5812
rwrist -3.47207
rhand -24.9278 13.1462
rfingers 7.12502
rthumb 1.58126 -16.8277
lclavicle 1.09332e-015 2.14687e-014
lhumerus -44.037 -12.5913 95.7158
lradius 95.1331
lwrist 9.1753
lhand -28.0897 -10.1169
lfingers 7.12502
lthumb -1.47252 19.8577
rfemur -36.7213 -6.45564 18.406
rtibia 37.7597
rfoot 1.8449 -4.96066
rtoes -26.8283
lfemur -23.2053 -3.15071 -19.5431
ltibia 85.3055
lfoot -18.1389 -16.4571
ltoes -10.0683
71
root 0.85132 15.3118 -4.79899 -194.121 -7.10794 178.825
lowerback 14.5862 -2.62327 -2.05013
upperback 0.631091 -3.86844 1.51487
thorax -7.26476 -1.85391 3.57038
lowerneck -16.3597 -1.41248 -2.89091
upperneck 12.794 -1.24155 0.230885
head 6.60125 -0.711443 0.416442
rclavicle 2.00773e-014 1.82882e-014
rhumerus -59.32 -3.52868 -82.2074
rradius 95.6559
rwrist -3.27955
rhand -24.8919 13.0449
rfingers 7.12502
rthumb 1.61593 -16.9287
lclavicle 2.00773e-014 1.82882e-014
lhumerus -43.6772 -12.9964 95.7392
lradius 95.0078
lwrist 8.80036
lhand -27.7737 -10.302
lfingers 7.12502
lthumb -1.16736 19.6745
rfemur -36.2344 -6.2863 18.4713
rtibia 38.725
rfoot 2.96151 -4.68652
rtoes -24.5295
lfemur -22.5 -3.49606 -18.8897
ltibia 85.773
lfoot -16.2691 -18.91
ltoes -9.10956
